<svg width="20" height="17" viewBox="0 0 20 17" fill="none" xmlns="http://www.w3.org/2000/svg">
<path d="M19.6004 8.47775C19.6004 9.08984 19.1279 9.57076 18.5695 9.57076H3.96549L9.67824 15.0795C10.1078 15.473 10.1078 16.1725 9.7212 16.566C9.33462 17.0032 8.69032 17.0032 8.26079 16.6097L0.701062 9.26472C0.486297 9.04611 0.400391 8.78379 0.400391 8.47775C0.400391 8.21543 0.486297 7.9531 0.701062 7.7345L8.26079 0.389473C8.69032 -0.00401077 9.33462 -0.00401077 9.7212 0.433193C10.1078 0.826677 10.1078 1.5262 9.67824 1.91969L3.96549 7.42846H18.5695C19.1709 7.42846 19.6004 7.90938 19.6004 8.47775Z" fill="white"/>
</svg>
