<svg width="28" height="28" viewBox="0 0 28 28" fill="none" xmlns="http://www.w3.org/2000/svg">
<path d="M23.625 7H4.375C2.92525 7 1.75 8.17525 1.75 9.625V21.875C1.75 23.3247 2.92525 24.5 4.375 24.5H23.625C25.0747 24.5 26.25 23.3247 26.25 21.875V9.625C26.25 8.17525 25.0747 7 23.625 7Z" stroke="#A1ADB2" stroke-width="1.5" stroke-linejoin="round"/>
<path d="M7.875 7V5.25C7.875 4.78587 8.05937 4.34075 8.38756 4.01256C8.71575 3.68437 9.16087 3.5 9.625 3.5H18.375C18.8391 3.5 19.2842 3.68437 19.6124 4.01256C19.9406 4.34075 20.125 4.78587 20.125 5.25V7M26.25 13.125H1.75M17.5 13.125V14.4375C17.5 14.5535 17.4539 14.6648 17.3719 14.7469C17.2898 14.8289 17.1785 14.875 17.0625 14.875H10.9375C10.8215 14.875 10.7102 14.8289 10.6281 14.7469C10.5461 14.6648 10.5 14.5535 10.5 14.4375V13.125" stroke="#A1ADB2" stroke-width="1.5" stroke-linecap="round" stroke-linejoin="round"/>
</svg>
