<svg width="24" height="24" viewBox="0 0 24 24" fill="none" xmlns="http://www.w3.org/2000/svg">
<path d="M5.16562 9.90005C4.95234 9.90005 4.8 10.0829 4.8 10.2657V18.1875C4.8 19.0102 5.43984 19.65 6.2625 19.65H16.9875C17.7797 19.65 18.45 19.0102 18.45 18.1875V10.2657C18.45 10.0829 18.2672 9.90005 18.0844 9.90005H5.16562ZM18.45 8.55942V7.46255C18.45 6.67036 17.7797 6.00005 16.9875 6.00005H15.525V4.41567C15.525 4.23286 15.3422 4.05005 15.1594 4.05005H13.9406C13.7273 4.05005 13.575 4.23286 13.575 4.41567V6.00005H9.675V4.41567C9.675 4.23286 9.49219 4.05005 9.30937 4.05005H8.09062C7.87734 4.05005 7.725 4.23286 7.725 4.41567V6.00005H6.2625C5.43984 6.00005 4.8 6.67036 4.8 7.46255V8.55942C4.8 8.7727 4.95234 8.92505 5.16562 8.92505H18.0844C18.2672 8.92505 18.45 8.7727 18.45 8.55942Z" fill="#1A97D4"/>
</svg>
