<svg width="18" height="18" viewBox="0 0 18 18" fill="none" xmlns="http://www.w3.org/2000/svg">
<g id="mdi:clock-time-four-outline">
<path id="Vector" d="M9.00053 14.2359C11.8805 14.2359 14.2369 11.8796 14.2369 8.99956C14.2369 6.11956 11.8805 3.76319 9.00053 3.76319C6.12053 3.76319 3.76417 6.11956 3.76417 8.99956C3.76417 11.8796 6.12053 14.2359 9.00053 14.2359ZM9.00053 2.4541C12.6005 2.4541 15.546 5.39956 15.546 8.99956C15.546 12.5996 12.6005 15.545 9.00053 15.545C5.40053 15.545 2.45508 12.5996 2.45508 8.99956C2.45508 5.39956 5.40053 2.4541 9.00053 2.4541ZM12.2733 10.2432L11.8151 11.0941L8.34599 9.19592V5.72683H9.3278V8.60683L12.2733 10.2432Z" fill="#1A97D4"/>
</g>
</svg>
