<svg width="30" height="30" viewBox="0 0 30 30" fill="none" xmlns="http://www.w3.org/2000/svg">
<g id="Frame 1000005853">
<path id="Vector" d="M23.9 14.2504C24.3844 14.5807 24.8163 14.9554 25.1957 15.3743C25.5751 15.7933 25.9021 16.2525 26.1766 16.752C26.451 17.2515 26.6529 17.7792 26.782 18.3351C26.9112 18.8911 26.9839 19.459 27 20.0391C27 20.9979 26.8184 21.9002 26.4551 22.7462C26.0918 23.5921 25.5913 24.3293 24.9535 24.9577C24.3158 25.5861 23.5771 26.0816 22.7375 26.4442C21.8979 26.8067 20.9937 26.992 20.025 27.0001C19.2904 27.0001 18.5799 26.8913 17.8938 26.6738C17.2076 26.4562 16.5779 26.142 16.0047 25.7311C15.4315 25.3202 14.9229 24.8288 14.4789 24.2568C14.0349 23.6848 13.6918 23.0523 13.4496 22.3594H3.75V3.79694H6.85V2.25006H8.4V3.79694H19.25V2.25006H20.8V3.79694H23.9V14.2504ZM5.3 5.34381V8.43756H22.35V5.34381H20.8V6.89069H19.25V5.34381H8.4V6.89069H6.85V5.34381H5.3ZM13.0863 20.8126C13.0621 20.5628 13.05 20.305 13.05 20.0391C13.05 19.3463 13.1469 18.6735 13.3406 18.0209C13.5344 17.3683 13.829 16.752 14.2246 16.1719H13.05V14.6251H14.6V15.6644C14.931 15.2535 15.2983 14.8909 15.702 14.5767C16.1056 14.2625 16.5415 13.9926 17.0098 13.767C17.478 13.5414 17.9664 13.3723 18.475 13.2595C18.9836 13.1467 19.5003 13.0862 20.025 13.0782C20.8323 13.0782 21.6073 13.2111 22.35 13.477V9.98444H5.3V20.8126H13.0863ZM20.025 25.4532C20.7758 25.4532 21.4781 25.3122 22.132 25.0302C22.7859 24.7482 23.3591 24.3615 23.8516 23.8701C24.344 23.3786 24.7315 22.8066 25.0141 22.154C25.2966 21.5014 25.4419 20.7964 25.45 20.0391C25.45 19.2899 25.3087 18.5889 25.0262 17.9363C24.7436 17.2838 24.3561 16.7117 23.8637 16.2203C23.3712 15.7288 22.798 15.3421 22.1441 15.0601C21.4902 14.7781 20.7839 14.6331 20.025 14.6251C19.2742 14.6251 18.5719 14.7661 17.918 15.048C17.2641 15.33 16.6909 15.7167 16.1984 16.2082C15.706 16.6996 15.3185 17.2717 15.0359 17.9243C14.7534 18.5768 14.6081 19.2818 14.6 20.0391C14.6 20.7884 14.7413 21.4893 15.0238 22.1419C15.3064 22.7945 15.6939 23.3665 16.1863 23.858C16.6788 24.3494 17.252 24.7361 17.9059 25.0181C18.5598 25.3001 19.2661 25.4451 20.025 25.4532ZM20.8 19.2657H23.125V20.8126H19.25V16.1719H20.8V19.2657ZM6.85 14.6251H8.4V16.1719H6.85V14.6251ZM9.95 14.6251H11.5V16.1719H9.95V14.6251ZM9.95 11.5313H11.5V13.0782H9.95V11.5313ZM9.95 17.7188H11.5V19.2657H9.95V17.7188ZM14.6 13.0782H13.05V11.5313H14.6V13.0782ZM17.7 13.0782H16.15V11.5313H17.7V13.0782ZM6.85 11.5313H8.4V13.0782H6.85V11.5313Z" fill="#1A97D4"/>
</g>
</svg>
