<svg width="28" height="28" viewBox="0 0 28 28" fill="none" xmlns="http://www.w3.org/2000/svg">
<path d="M8.17739 24.5587C7.51416 24.5587 6.94619 24.3224 6.47348 23.8497C6.00077 23.377 5.76482 22.8094 5.76563 22.147V8.88227C5.76563 8.21903 6.00198 7.65106 6.47469 7.17835C6.94739 6.70565 7.51496 6.4697 8.17739 6.4705H10.5892V2.85285C10.5892 2.45089 10.7753 2.14942 11.1475 1.94844C11.5197 1.74746 11.9365 1.64697 12.398 1.64697H16.0156C16.4779 1.64697 16.8951 1.74746 17.2673 1.94844C17.6395 2.14942 17.8253 2.45089 17.8244 2.85285V6.4705H20.2362C20.8994 6.4705 21.4674 6.70685 21.9401 7.17956C22.4128 7.65227 22.6488 8.21983 22.648 8.88227V22.147C22.648 22.8102 22.4116 23.3782 21.9389 23.8509C21.4662 24.3236 20.8986 24.5595 20.2362 24.5587C20.2362 24.9004 20.1204 25.187 19.8889 25.4185C19.6574 25.6501 19.3712 25.7654 19.0303 25.7646C18.6887 25.7646 18.4021 25.6489 18.1705 25.4173C17.939 25.1858 17.8236 24.8996 17.8244 24.5587H10.5892C10.5892 24.9004 10.4734 25.187 10.2419 25.4185C10.0103 25.6501 9.72414 25.7654 9.38327 25.7646C9.04161 25.7646 8.75501 25.6489 8.52348 25.4173C8.29195 25.1858 8.17659 24.8996 8.17739 24.5587ZM12.398 6.4705H16.0156V3.4558H12.398V6.4705ZM9.38327 20.9411H11.1921V10.0881H9.38327V20.9411ZM13.3024 20.9411H15.1112V10.0881H13.3024V20.9411ZM17.2215 20.9411H19.0303V10.0881H17.2215V20.9411Z" fill="white"/>
</svg>
