<svg width="38" height="38" viewBox="0 0 38 38" fill="none" xmlns="http://www.w3.org/2000/svg">
<rect width="38" height="38" rx="19" fill="white" fill-opacity="0.1"/>
<path d="M22.7296 13.5065L24.4946 15.2707M23.8646 11.9524L19.0921 16.7249C18.8455 16.9711 18.6774 17.2848 18.6088 17.6265L18.168 19.8332L20.3746 19.3915C20.7163 19.3232 21.0296 19.1557 21.2763 18.909L26.0488 14.1365C26.1922 13.9931 26.306 13.8229 26.3836 13.6355C26.4612 13.4481 26.5012 13.2473 26.5012 13.0444C26.5012 12.8416 26.4612 12.6408 26.3836 12.4534C26.306 12.266 26.1922 12.0958 26.0488 11.9524C25.9054 11.8089 25.7351 11.6952 25.5478 11.6176C25.3604 11.5399 25.1595 11.5 24.9567 11.5C24.7539 11.5 24.5531 11.5399 24.3657 11.6176C24.1783 11.6952 24.0081 11.8089 23.8646 11.9524Z" stroke="white" stroke-width="1.5" stroke-linecap="round" stroke-linejoin="round"/>
<path d="M24.834 21.5003V24.0003C24.834 24.4424 24.6584 24.8663 24.3458 25.1788C24.0333 25.4914 23.6093 25.667 23.1673 25.667H14.0007C13.5586 25.667 13.1347 25.4914 12.8221 25.1788C12.5096 24.8663 12.334 24.4424 12.334 24.0003V14.8337C12.334 14.3916 12.5096 13.9677 12.8221 13.6551C13.1347 13.3426 13.5586 13.167 14.0007 13.167H16.5007" stroke="white" stroke-width="1.5" stroke-linecap="round" stroke-linejoin="round"/>
</svg>
