<svg width="20" height="20" viewBox="0 0 20 20" fill="none" xmlns="http://www.w3.org/2000/svg">
<g clip-path="url(#clip0_1_2755)">
<path fill-rule="evenodd" clip-rule="evenodd" d="M4.78114 8.46462C6.42822 8.46462 7.76345 7.1294 7.76345 5.48231C7.76345 3.83523 6.42822 2.5 4.78114 2.5C3.13405 2.5 1.79883 3.83523 1.79883 5.48231C1.79883 7.1294 3.13405 8.46462 4.78114 8.46462ZM4.78027 6.97359C5.60382 6.97359 6.27143 6.30598 6.27143 5.48244C6.27143 4.6589 5.60382 3.99128 4.78027 3.99128C3.95673 3.99128 3.28912 4.6589 3.28912 5.48244C3.28912 6.30598 3.95673 6.97359 4.78027 6.97359Z" fill="white"/>
<path fill-rule="evenodd" clip-rule="evenodd" d="M15.2188 17.4995C13.5717 17.4995 12.2365 16.1643 12.2365 14.5172C12.2365 12.8701 13.5717 11.5349 15.2188 11.5349C16.8659 11.5349 18.2011 12.8701 18.2011 14.5172C18.2011 16.1643 16.8659 17.4995 15.2188 17.4995ZM15.2196 16.0086C14.3961 16.0086 13.7285 15.341 13.7285 14.5175C13.7285 13.6939 14.3961 13.0263 15.2196 13.0263C16.0432 13.0263 16.7108 13.6939 16.7108 14.5175C16.7108 15.341 16.0432 16.0086 15.2196 16.0086Z" fill="white"/>
<rect x="10" y="3.99121" width="8.20135" height="2.23673" rx="1.11837" fill="white"/>
<rect width="8.20135" height="2.23673" rx="1.11837" transform="matrix(-1 0 0 1 10 13.0264)" fill="white"/>
</g>
<defs>
<clipPath id="clip0_1_2755">
<rect width="20" height="20" fill="white"/>
</clipPath>
</defs>
</svg>
