<svg width="24" height="25" viewBox="0 0 24 25" fill="none" xmlns="http://www.w3.org/2000/svg">
<path d="M11.0549 19.9405L11.0538 19.9395C8.46406 17.5911 6.37492 15.6925 4.92445 13.9179C3.48222 12.1535 2.75 10.6035 2.75 8.96509C2.75 6.29019 4.83332 4.21509 7.5 4.21509C9.01327 4.21509 10.4781 4.92343 11.4309 6.03355L12 6.69666L12.5691 6.03355C13.5219 4.92343 14.9867 4.21509 16.5 4.21509C19.1667 4.21509 21.25 6.29019 21.25 8.96509C21.25 10.6035 20.5178 12.1535 19.0756 13.9179C17.6251 15.6925 15.5359 17.5911 12.9462 19.9395L12.9451 19.9405L12 20.8009L11.0549 19.9405Z" fill="#031017" fill-opacity="0.1" stroke="white" stroke-width="1.5"/>
</svg>
