<svg width="55" height="54" viewBox="0 0 55 54" fill="none" xmlns="http://www.w3.org/2000/svg">
<rect x="0.5" width="54" height="54" rx="27" fill="#E1EDF2"/>
<path d="M27.4345 23.6004C28.7871 23.6004 30.0843 23.0631 31.0408 22.1066C31.9972 21.1502 32.5345 19.853 32.5345 18.5004C32.5345 17.1478 31.9972 15.8506 31.0408 14.8941C30.0843 13.9377 28.7871 13.4004 27.4345 13.4004C26.0819 13.4004 24.7847 13.9377 23.8283 14.8941C22.8719 15.8506 22.3345 17.1478 22.3345 18.5004C22.3345 19.853 22.8719 21.1502 23.8283 22.1066C24.7847 23.0631 26.0819 23.6004 27.4345 23.6004ZM18.28 37.928C17.9467 37.7203 17.679 37.4224 17.5078 37.069C17.3367 36.7155 17.269 36.3208 17.3127 35.9305C17.6261 33.4673 18.827 31.2029 20.6903 29.5616C22.5536 27.9204 24.9515 27.0149 27.4345 27.0149C29.9176 27.0149 32.3154 27.9204 34.1787 29.5616C36.0421 31.2029 37.2429 33.4673 37.5563 35.9305C37.6549 36.7244 37.2639 37.4945 36.5873 37.9263C33.8558 39.6767 30.6787 40.6049 27.4345 40.6004C24.1899 40.6058 21.0122 39.6781 18.28 37.928Z" fill="white"/>
</svg>
