<svg width="28" height="29" viewBox="0 0 28 29" fill="none" xmlns="http://www.w3.org/2000/svg">
<path d="M15.6917 3.45519C15.2183 3.05622 14.6191 2.8374 14 2.8374C13.3809 2.8374 12.7817 3.05622 12.3083 3.45519L4.43333 10.0994C4.14104 10.3457 3.90607 10.6529 3.74486 10.9995C3.58365 11.3461 3.50008 11.7238 3.5 12.106V22.9619C3.5 24.0889 4.41467 25.0035 5.54167 25.0035H9.04167C9.58315 25.0035 10.1025 24.7884 10.4853 24.4055C10.8682 24.0226 11.0833 23.5033 11.0833 22.9619V18.2917C11.0833 17.4984 11.7157 16.8544 12.5032 16.8334H15.4968C15.8769 16.8434 16.238 17.0015 16.5032 17.2739C16.7684 17.5463 16.9168 17.9115 16.9167 18.2917V22.9619C16.9167 24.0889 17.8313 25.0035 18.9583 25.0035H22.4583C22.9998 25.0035 23.5191 24.7884 23.902 24.4055C24.2849 24.0226 24.5 23.5033 24.5 22.9619V12.1049C24.4999 11.7226 24.4164 11.345 24.2551 10.9984C24.0939 10.6518 23.859 10.3445 23.5667 10.0982L15.6917 3.45519Z" fill="white"/>
</svg>
