<svg width="20" height="20" viewBox="0 0 20 20" fill="none" xmlns="http://www.w3.org/2000/svg">
<path d="M3 3.875C3 3.39102 3.39102 3 3.875 3H16.125C16.609 3 17 3.39102 17 3.875C17 4.35898 16.609 4.75 16.125 4.75V15.25C16.609 15.25 17 15.641 17 16.125C17 16.609 16.609 17 16.125 17H11.3125V15.6875C11.3125 14.9629 10.7246 14.375 10 14.375C9.27539 14.375 8.6875 14.9629 8.6875 15.6875V17H3.875C3.39102 17 3 16.609 3 16.125C3 15.641 3.39102 15.25 3.875 15.25V4.75C3.39102 4.75 3 4.35898 3 3.875ZM5.625 6.0625V6.9375C5.625 7.17812 5.82188 7.375 6.0625 7.375H6.9375C7.17812 7.375 7.375 7.17812 7.375 6.9375V6.0625C7.375 5.82188 7.17812 5.625 6.9375 5.625H6.0625C5.82188 5.625 5.625 5.82188 5.625 6.0625ZM9.5625 5.625C9.32188 5.625 9.125 5.82188 9.125 6.0625V6.9375C9.125 7.17812 9.32188 7.375 9.5625 7.375H10.4375C10.6781 7.375 10.875 7.17812 10.875 6.9375V6.0625C10.875 5.82188 10.6781 5.625 10.4375 5.625H9.5625ZM12.625 6.0625V6.9375C12.625 7.17812 12.8219 7.375 13.0625 7.375H13.9375C14.1781 7.375 14.375 7.17812 14.375 6.9375V6.0625C14.375 5.82188 14.1781 5.625 13.9375 5.625H13.0625C12.8219 5.625 12.625 5.82188 12.625 6.0625ZM6.0625 8.25C5.82188 8.25 5.625 8.44688 5.625 8.6875V9.5625C5.625 9.80312 5.82188 10 6.0625 10H6.9375C7.17812 10 7.375 9.80312 7.375 9.5625V8.6875C7.375 8.44688 7.17812 8.25 6.9375 8.25H6.0625ZM9.125 8.6875V9.5625C9.125 9.80312 9.32188 10 9.5625 10H10.4375C10.6781 10 10.875 9.80312 10.875 9.5625V8.6875C10.875 8.44688 10.6781 8.25 10.4375 8.25H9.5625C9.32188 8.25 9.125 8.44688 9.125 8.6875ZM13.0625 8.25C12.8219 8.25 12.625 8.44688 12.625 8.6875V9.5625C12.625 9.80312 12.8219 10 13.0625 10H13.9375C14.1781 10 14.375 9.80312 14.375 9.5625V8.6875C14.375 8.44688 14.1781 8.25 13.9375 8.25H13.0625ZM11.9688 13.5C12.3324 13.5 12.6332 13.202 12.543 12.8492C12.2531 11.7145 11.225 10.875 10 10.875C8.775 10.875 7.74414 11.7145 7.45703 12.8492C7.3668 13.1992 7.67031 13.5 8.03125 13.5H11.9688Z" fill="#A1ADB2"/>
</svg>
