<svg width="14" height="15" viewBox="0 0 14 15" fill="none" xmlns="http://www.w3.org/2000/svg">
<g id="material-symbols:luggage">
<path id="Vector" d="M4.08268 12.7498C3.76185 12.7498 3.4871 12.6355 3.25843 12.4068C3.02977 12.1782 2.91563 11.9036 2.91602 11.5832V5.1665C2.91602 4.84567 3.03035 4.57092 3.25902 4.34225C3.48768 4.11359 3.76224 3.99945 4.08268 3.99984H5.24935V2.24984C5.24935 2.05539 5.33938 1.90956 5.51943 1.81234C5.69949 1.71512 5.90113 1.6665 6.12435 1.6665H7.87435C8.09796 1.6665 8.29979 1.71512 8.47985 1.81234C8.65991 1.90956 8.74974 2.05539 8.74935 2.24984V3.99984H9.91602C10.2368 3.99984 10.5116 4.11417 10.7403 4.34284C10.9689 4.5715 11.0831 4.84606 11.0827 5.1665V11.5832C11.0827 11.904 10.9684 12.1788 10.7397 12.4074C10.511 12.6361 10.2365 12.7502 9.91602 12.7498C9.91602 12.9151 9.86002 13.0538 9.74802 13.1658C9.63602 13.2778 9.49757 13.3336 9.33268 13.3332C9.16741 13.3332 9.02877 13.2772 8.91677 13.1652C8.80477 13.0532 8.74896 12.9147 8.74935 12.7498H5.24935C5.24935 12.9151 5.19335 13.0538 5.08135 13.1658C4.96935 13.2778 4.83091 13.3336 4.66602 13.3332C4.50074 13.3332 4.3621 13.2772 4.2501 13.1652C4.1381 13.0532 4.08229 12.9147 4.08268 12.7498ZM6.12435 3.99984H7.87435V2.5415H6.12435V3.99984ZM4.66602 10.9998H5.54102V5.74984H4.66602V10.9998ZM6.56185 10.9998H7.43685V5.74984H6.56185V10.9998ZM8.45768 10.9998H9.33268V5.74984H8.45768V10.9998Z" fill="#1A97D4"/>
</g>
</svg>
