<svg width="24" height="24" viewBox="0 0 24 24" fill="none" xmlns="http://www.w3.org/2000/svg">
<path d="M18.7504 9.71017V9.00516C18.7504 5.13607 15.7264 2 12.0003 2C8.27418 2 5.25011 5.13607 5.25011 9.00516V9.71017C5.25132 10.5517 5.01115 11.376 4.5581 12.0852L3.45007 13.8103C2.43905 15.3853 3.21107 17.5263 4.97011 18.0244C9.56632 19.3274 14.4342 19.3274 19.0304 18.0244C20.7895 17.5263 21.5615 15.3853 20.5505 13.8113L19.4424 12.0862C18.989 11.3771 18.7485 10.5528 18.7494 9.71117L18.7504 9.71017Z" stroke="#1A97D4" stroke-width="1.5"/>
<path d="M7.5 18.9995C8.15501 20.7476 9.92205 21.9996 12.0001 21.9996C14.0781 21.9996 15.8452 20.7476 16.5002 18.9995" stroke="#1A97D4" stroke-width="1.5" stroke-linecap="round"/>
</svg>
