<svg width="29" height="28" viewBox="0 0 29 28" fill="none" xmlns="http://www.w3.org/2000/svg">
<path d="M18.4083 23.3333L16.1333 25.5792C15.6861 26.0264 15.1417 26.25 14.5 26.25C13.8583 26.25 13.3139 26.0264 12.8667 25.5792L10.5917 23.3333H7.5C6.85833 23.3333 6.30883 23.1047 5.8515 22.6473C5.39417 22.19 5.16589 21.6409 5.16667 21V17.9083L2.92083 15.6333C2.47361 15.1861 2.25 14.6417 2.25 14C2.25 13.3583 2.47361 12.8139 2.92083 12.3667L5.16667 10.0917V7C5.16667 6.35833 5.39533 5.80883 5.85267 5.3515C6.31 4.89417 6.85911 4.66589 7.5 4.66667H10.5917L12.8667 2.42083C13.3139 1.97361 13.8583 1.75 14.5 1.75C15.1417 1.75 15.6861 1.97361 16.1333 2.42083L18.4083 4.66667H21.5C22.1417 4.66667 22.6912 4.89533 23.1485 5.35267C23.6058 5.81 23.8341 6.35911 23.8333 7V10.0917L26.0792 12.3667C26.5264 12.8139 26.75 13.3583 26.75 14C26.75 14.6417 26.5264 15.1861 26.0792 15.6333L23.8333 17.9083V21C23.8333 21.6417 23.6047 22.1912 23.1473 22.6485C22.69 23.1058 22.1409 23.3341 21.5 23.3333H18.4083Z" stroke="#A1ADB2" stroke-width="1.5"/>
<path d="M10.502 17.9999L18.5018 10" stroke="#A1ADB2" stroke-width="1.5" stroke-linecap="round" stroke-linejoin="round"/>
<path d="M17.5006 18.6668C18.4211 18.6668 19.1673 17.9206 19.1673 17.0001C19.1673 16.0797 18.4211 15.3335 17.5006 15.3335C16.5802 15.3335 15.834 16.0797 15.834 17.0001C15.834 17.9206 16.5802 18.6668 17.5006 18.6668Z" stroke="#A1ADB2" stroke-width="1.5" stroke-linecap="round" stroke-linejoin="round"/>
<path d="M11.5006 12.6668C12.4211 12.6668 13.1673 11.9206 13.1673 11.0001C13.1673 10.0797 12.4211 9.3335 11.5006 9.3335C10.5802 9.3335 9.83398 10.0797 9.83398 11.0001C9.83398 11.9206 10.5802 12.6668 11.5006 12.6668Z" stroke="#A1ADB2" stroke-width="1.5" stroke-linecap="round" stroke-linejoin="round"/>
</svg>
