<svg width="150" height="213" viewBox="0 0 150 213" fill="none" xmlns="http://www.w3.org/2000/svg">
<rect y="156.629" width="150" height="55.5682" rx="13.5" fill="white"/>
<rect opacity="0.3" x="52.2058" y="168.132" width="84.016" height="5.82512" rx="2.91256" fill="#A1ADB2"/>
<rect opacity="0.3" x="52.2058" y="178.75" width="61.8772" height="5.82512" rx="2.91256" fill="#A1ADB2"/>
<rect opacity="0.15" x="52.2058" y="194.677" width="24.026" height="5.82512" rx="2.91256" fill="#A1ADB2"/>
<ellipse cx="26.909" cy="177.299" rx="13.6364" ry="13.592" fill="#A1ADB2"/>
<path d="M24.722 182.343C24.9815 182.602 25.3207 182.732 25.6604 182.732C26.0002 182.732 26.3394 182.602 26.5988 182.343L33.2353 175.706C33.7537 175.188 33.7537 174.348 33.2353 173.829C32.717 173.311 31.8768 173.311 31.3585 173.829L25.6604 179.527L22.6169 176.484C22.0986 175.966 21.2585 175.966 20.7401 176.484C20.2218 177.002 20.2218 177.842 20.7401 178.361L24.722 182.343Z" fill="white"/>
<rect y="92.0369" width="150" height="55.5682" rx="13.5" fill="white"/>
<rect opacity="0.3" x="52.2058" y="103.54" width="84.016" height="5.82513" rx="2.91256" fill="#A1ADB2"/>
<rect opacity="0.3" x="52.2058" y="114.158" width="61.8772" height="5.82513" rx="2.91256" fill="#A1ADB2"/>
<rect opacity="0.15" x="52.2058" y="130.085" width="24.026" height="5.82512" rx="2.91256" fill="#A1ADB2"/>
<ellipse cx="26.909" cy="112.708" rx="13.6364" ry="13.592" fill="#A1ADB2"/>
<path d="M24.722 117.751C24.9815 118.01 25.3207 118.14 25.6604 118.14C26.0002 118.14 26.3394 118.01 26.5988 117.751L33.2353 111.114C33.7537 110.596 33.7537 109.756 33.2353 109.238C32.717 108.719 31.8768 108.719 31.3585 109.238L25.6604 114.935L22.6169 111.892C22.0986 111.374 21.2585 111.374 20.7401 111.892C20.2218 112.411 20.2218 113.251 20.7401 113.769L24.722 117.751Z" fill="white"/>
</svg>
