<svg width="23" height="21" viewBox="0 0 23 21" fill="none" xmlns="http://www.w3.org/2000/svg">
<path d="M8.0348 8.17537C9.04041 8.17537 10.0048 7.77589 10.7159 7.06482C11.427 6.35374 11.8265 5.38932 11.8265 4.3837C11.8265 3.37809 11.427 2.41367 10.7159 1.70259C10.0048 0.991519 9.04041 0.592041 8.0348 0.592041C7.02919 0.592041 6.06476 0.991519 5.35369 1.70259C4.64261 2.41367 4.24314 3.37809 4.24314 4.3837C4.24314 5.38932 4.64261 6.35374 5.35369 7.06482C6.06476 7.77589 7.02919 8.17537 8.0348 8.17537ZM17.514 9.43926C18.352 9.43926 19.1557 9.10636 19.7482 8.51379C20.3408 7.92123 20.6737 7.11755 20.6737 6.27954C20.6737 5.44153 20.3408 4.63784 19.7482 4.04528C19.1557 3.45271 18.352 3.11982 17.514 3.11982C16.6759 3.11982 15.8723 3.45271 15.2797 4.04528C14.6871 4.63784 14.3542 5.44153 14.3542 6.27954C14.3542 7.11755 14.6871 7.92123 15.2797 8.51379C15.8723 9.10636 16.6759 9.43926 17.514 9.43926ZM1.22876 18.8274C0.980961 18.673 0.781925 18.4516 0.654664 18.1888C0.527404 17.926 0.477115 17.6325 0.509612 17.3423C0.742617 15.511 1.63542 13.8276 3.02072 12.6073C4.40602 11.3871 6.18873 10.714 8.0348 10.714C9.88087 10.714 11.6636 11.3871 13.0489 12.6073C14.4342 13.8276 15.327 15.511 15.56 17.3423C15.6333 17.9326 15.3426 18.5051 14.8396 18.8261C12.8088 20.1275 10.4467 20.8176 8.0348 20.8142C5.62255 20.8182 3.26002 20.1286 1.22876 18.8274ZM17.514 18.2865H17.38C17.4685 17.9111 17.4912 17.5142 17.4407 17.1073C17.2246 15.3698 16.5297 13.7266 15.4336 12.3614C16.139 12.0838 16.8928 11.95 17.6506 11.9678C18.4084 11.9856 19.1551 12.1546 19.8467 12.465C20.5383 12.7753 21.1609 13.2207 21.678 13.7751C22.195 14.3294 22.5961 14.9815 22.8577 15.693C22.938 15.9201 22.9365 16.1682 22.8535 16.3943C22.7704 16.6205 22.611 16.8105 22.4027 16.9316C20.9274 17.8211 19.2367 18.2896 17.514 18.2865Z" fill="#1A97D4"/>
</svg>
