<svg width="21" height="20" viewBox="0 0 21 20" fill="none" xmlns="http://www.w3.org/2000/svg">
<path d="M15.5322 8.33301H12.5374L9.80301 3.56738C9.72488 3.43717 9.59468 3.33301 9.43843 3.33301H7.74572C7.45926 3.33301 7.25093 3.61947 7.32905 3.87988L8.60509 8.33301H5.94884L4.80301 6.84863C4.72489 6.74447 4.62072 6.66634 4.49051 6.66634H3.44884C3.16239 6.66634 2.95405 6.92676 3.03218 7.18717L3.86551 9.99967L3.03218 12.8382C2.95405 13.0986 3.16239 13.333 3.44884 13.333H4.49051C4.62072 13.333 4.72489 13.2809 4.80301 13.1768L5.94884 11.6663H8.60509L7.32905 16.1455C7.25093 16.4059 7.45926 16.6663 7.74572 16.6663H9.43843C9.59468 16.6663 9.72488 16.5882 9.80301 16.458L12.5374 11.6663H15.5322C16.4436 11.6663 18.0322 10.9372 18.0322 9.99967C18.0322 9.08822 16.4436 8.33301 15.5322 8.33301Z" fill="#1A97D4"/>
</svg>
