<svg width="27" height="24" viewBox="0 0 27 24" fill="none" xmlns="http://www.w3.org/2000/svg">
<path d="M24.0597 17.2803H3.53999C3.24165 17.2803 3 17.4951 3 17.7603V18.7203C3 18.9854 3.24165 19.2002 3.53999 19.2002H24.0597C24.358 19.2002 24.5997 18.9854 24.5997 18.7203V17.7603C24.5997 17.4951 24.358 17.2803 24.0597 17.2803Z" fill="#1A97D4"/>
<path d="M4.00102 7.38997C3.98766 7.66828 4.10555 7.93768 4.32606 8.13327L7.44563 10.8986C7.6918 11.1168 7.99233 11.2805 8.32288 11.3763L18.7901 14.4163C19.7521 14.6957 20.7864 14.7933 21.781 14.6011C22.8976 14.3853 23.437 13.9904 23.6119 13.5281C23.7876 13.0661 23.6246 12.4673 22.8769 11.7102C22.2108 11.0358 21.3147 10.5727 20.353 10.2932L16.8091 9.26391L13.5483 2.88392C13.5278 2.79057 13.4796 2.70377 13.4088 2.6325C13.3379 2.56123 13.2469 2.50808 13.1452 2.47855L10.7797 1.79167C10.396 1.68009 9.99459 1.92744 9.9755 2.28721L11.3625 7.68207L7.64943 6.60382L6.79317 4.29543C6.76368 4.21589 6.71355 4.14364 6.64685 4.0845C6.58015 4.02535 6.49874 3.98098 6.40919 3.95496L4.96539 3.5358C4.58976 3.42676 4.19433 3.66159 4.16235 4.0133L4.00102 7.38997Z" fill="#1A97D4"/>
</svg>
