<svg width="24" height="24" viewBox="0 0 24 24" fill="none" xmlns="http://www.w3.org/2000/svg">
<path d="M21.1192 17.2798H2.87949C2.6143 17.2798 2.3995 17.4946 2.3995 17.7598V18.7198C2.3995 18.985 2.6143 19.1998 2.87949 19.1998H21.1192C21.3844 19.1998 21.5992 18.985 21.5992 18.7198V17.7598C21.5992 17.4946 21.3844 17.2798 21.1192 17.2798ZM4.81596 14.078C5.00436 14.2832 5.26896 14.3996 5.54585 14.3993L9.46199 14.3939C9.77105 14.3935 10.0757 14.3203 10.3512 14.1803L19.0798 9.75085C19.882 9.34375 20.6011 8.76266 21.0904 8.00157C21.6397 7.14719 21.6994 6.5289 21.4825 6.0921C21.2662 5.65501 20.7403 5.33401 19.735 5.26861C18.8396 5.21041 17.9489 5.44621 17.1467 5.85301L14.1914 7.35268L7.63052 4.89092C7.55164 4.83778 7.45999 4.80667 7.36505 4.80082C7.27012 4.79496 7.17534 4.81457 7.09053 4.85762L5.11806 5.85871C4.79796 6.021 4.72056 6.4482 4.96296 6.71459L9.64949 9.65755L6.55324 11.2289L4.38277 10.1348C4.30799 10.0971 4.2254 10.0776 4.14165 10.0777C4.05791 10.0778 3.97536 10.0976 3.90068 10.1354L2.69679 10.7465C2.3836 10.9055 2.3011 11.3201 2.5297 11.5889L4.81596 14.078Z" fill="#1A97D4"/>
</svg>
