<svg width="15" height="16" viewBox="0 0 15 16" fill="none" xmlns="http://www.w3.org/2000/svg">
<path d="M11.1993 9.38067C11.0374 9.53754 10.963 9.76442 10.9999 9.98692L11.5555 13.0619C11.6024 13.3225 11.4924 13.5863 11.2743 13.7369C11.0605 13.8932 10.7762 13.9119 10.543 13.7869L7.77492 12.3432C7.67867 12.2919 7.5718 12.2644 7.46242 12.2613H7.29305C7.2343 12.27 7.1768 12.2888 7.1243 12.3175L4.35555 13.7682C4.21867 13.8369 4.06367 13.8613 3.9118 13.8369C3.5418 13.7669 3.29492 13.4144 3.35555 13.0425L3.9118 9.96754C3.94867 9.74317 3.8743 9.51504 3.71242 9.35567L1.45555 7.16816C1.2668 6.98504 1.20117 6.71004 1.28742 6.46192C1.37117 6.21442 1.58492 6.03379 1.84305 5.99317L4.9493 5.54254C5.18555 5.51816 5.39305 5.37441 5.4993 5.16191L6.86805 2.35566C6.90055 2.29316 6.94242 2.23566 6.99305 2.18691L7.0493 2.14316C7.07867 2.11066 7.11242 2.08379 7.14992 2.06191L7.21805 2.03691L7.3243 1.99316H7.58742C7.82242 2.01754 8.0293 2.15816 8.13742 2.36816L9.5243 5.16191C9.6243 5.36629 9.81867 5.50816 10.043 5.54254L13.1493 5.99317C13.4118 6.03066 13.6312 6.21192 13.718 6.46192C13.7999 6.71254 13.7293 6.98754 13.5368 7.16816L11.1993 9.38067Z" fill="url(#paint0_linear_1_2466)"/>
<defs>
<linearGradient id="paint0_linear_1_2466" x1="1.25" y1="1.99316" x2="13.1102" y2="14.4783" gradientUnits="userSpaceOnUse">
<stop stop-color="#F9DD7D"/>
<stop offset="1" stop-color="#FF9900"/>
</linearGradient>
</defs>
</svg>
