<svg width="25" height="24" viewBox="0 0 25 24" fill="none" xmlns="http://www.w3.org/2000/svg">
<path d="M6.6393 11.8603L3.8593 14.6503C3.6693 14.8503 3.6693 15.1603 3.8593 15.3603L6.6393 18.1503C6.9493 18.4703 7.4893 18.2403 7.4893 17.8003V16.0003H13.4993C14.0493 16.0003 14.4993 15.5503 14.4993 15.0003C14.4993 14.4503 14.0493 14.0003 13.4993 14.0003H7.4893V12.2103C7.4893 11.7603 6.9493 11.5403 6.6393 11.8603ZM21.1493 8.65033L18.3693 5.86033C18.0593 5.54033 17.5193 5.77033 17.5193 6.21033V8.00033H11.4993C10.9493 8.00033 10.4993 8.45033 10.4993 9.00033C10.4993 9.55033 10.9493 10.0003 11.4993 10.0003H17.5093V11.7903C17.5093 12.2403 18.0493 12.4603 18.3593 12.1403L21.1393 9.35033C21.3393 9.16033 21.3393 8.84033 21.1493 8.65033Z" fill="white"/>
</svg>
