<svg width="28" height="28" viewBox="0 0 28 28" fill="none" xmlns="http://www.w3.org/2000/svg">
<path d="M7 10.501H11.6667" stroke="#A1ADB2" stroke-width="1.5" stroke-linecap="round" stroke-linejoin="round"/>
<path d="M24.3052 11.6675H21.2695C19.187 11.6675 17.5 13.2343 17.5 15.1675C17.5 17.1007 19.1882 18.6675 21.2684 18.6675H24.3052C24.4032 18.6675 24.4511 18.6675 24.4919 18.6652C25.1219 18.6267 25.6236 18.1612 25.6644 17.5767C25.6667 17.5394 25.6667 17.4939 25.6667 17.404V12.931C25.6667 12.8412 25.6667 12.7957 25.6644 12.7583C25.6224 12.1738 25.1219 11.7083 24.4919 11.6698C24.4511 11.6675 24.4032 11.6675 24.3052 11.6675Z" stroke="#A1ADB2" stroke-width="1.5"/>
<path d="M24.46 11.6674C24.369 9.48335 24.0773 8.144 23.1335 7.20133C21.7673 5.83398 19.567 5.83398 15.1674 5.83398H11.6674C7.26786 5.83398 5.06751 5.83398 3.70133 7.20133C2.33398 8.56751 2.33398 10.7679 2.33398 15.1674C2.33398 19.5669 2.33398 21.7673 3.70133 23.1335C5.06751 24.5008 7.26786 24.5008 11.6674 24.5008H15.1674C19.567 24.5008 21.7673 24.5008 23.1335 23.1335C24.0773 22.1908 24.3702 20.8514 24.46 18.6674" stroke="#A1ADB2" stroke-width="1.5"/>
<path d="M7 5.83414L11.3575 2.94428C11.9704 2.54567 12.6857 2.3335 13.4167 2.3335C14.1478 2.3335 14.8631 2.54567 15.4759 2.94428L19.8334 5.83414" stroke="#A1ADB2" stroke-width="1.5" stroke-linecap="round"/>
<path d="M20.9902 15.1675H20.9992" stroke="#A1ADB2" stroke-width="2" stroke-linecap="round" stroke-linejoin="round"/>
</svg>
