<svg width="22" height="22" viewBox="0 0 22 22" fill="none" xmlns="http://www.w3.org/2000/svg">
<g clip-path="url(#clip0_1_2683)">
<path d="M3.01911 10.7729C2.53957 10.0837 2.34707 9.43403 2.81629 9.04044C3.21332 8.707 3.7977 8.6434 4.51957 9.477C4.51957 9.477 6.67661 11.9829 7.41911 12.679C7.58754 12.8354 7.79723 12.8595 7.98801 12.6618C8.14957 12.4934 8.09114 12.3473 7.95364 12.1462C7.95364 12.1462 4.91317 7.6259 4.51442 7.07419C3.84926 6.15122 4.10536 5.55481 4.41301 5.27122C4.84098 4.87419 5.59379 4.79512 6.29332 5.75419L9.97489 10.6818C10.0866 10.8004 10.2671 10.8176 10.3994 10.7248L10.451 10.6887C10.5868 10.5925 10.6263 10.4086 10.5438 10.2642C9.89926 9.14184 7.33489 4.66965 6.95848 3.85497C6.52536 2.91481 6.71098 2.437 7.16989 2.16028C7.71473 1.832 8.22692 1.85606 8.83879 2.76528C9.50223 3.75528 12.0786 7.92325 12.7335 9.04387C12.8194 9.18997 13.0033 9.24497 13.1546 9.17106C13.1563 9.16934 13.1597 9.16934 13.1615 9.16762C13.3058 9.09715 13.4365 8.9545 13.3763 8.75169C13.0188 7.57262 11.264 3.90137 10.8961 3.05747C10.3925 1.90419 10.6383 1.51231 11.1591 1.24762C11.7057 0.970904 12.2746 1.18919 12.6613 1.95919C12.9225 2.48169 17.5099 10.8297 17.5099 10.8297C17.4429 9.58528 17.7574 8.70356 18.0255 7.8184C18.5136 6.20794 19.6944 5.3709 20.5504 5.74731C20.9955 5.94325 21.0763 6.3334 21.0282 6.63247C20.9319 7.2134 20.5229 9.01294 20.4438 10.4223C20.2582 13.7257 21.2568 17.5328 17.5357 19.9253C15.0452 21.5272 12.376 21.2453 10.6125 20.0129C8.47442 18.5193 3.41098 11.3367 3.01911 10.7729Z" fill="#FFCA28"/>
<path d="M20.2263 8.89809C19.9152 10.2061 19.8739 11.8114 19.8842 12.4954C19.9255 15.1612 19.9117 17.4678 17.2391 19.575C16.9108 19.8345 15.8813 20.467 14.6833 20.797C14.2983 20.9018 14.4444 21.0256 14.6816 20.9981C15.9895 20.8468 16.9813 20.2831 17.533 19.9273C21.2523 17.5348 20.338 13.7536 20.5236 10.4501C20.6027 9.04075 21.0323 6.82356 21.0255 6.63278C21.0169 6.442 20.5373 7.59012 20.2263 8.89809ZM13.3255 9.03559C13.3255 9.03559 13.0591 9.03731 12.8064 8.68496C12.0484 7.63137 9.67141 3.65246 8.98735 2.67621C8.20704 1.56246 7.48 1.98871 7.315 2.07809C7.315 2.07809 7.91313 2.09871 8.24313 2.58856C8.91688 3.58715 11.4709 8.06278 12.277 9.02356C12.7978 9.64403 13.3255 9.03559 13.3255 9.03559ZM3.90328 9.37418C4.13703 9.62512 6.18922 12.0606 6.94547 12.7395C7.59516 13.3222 8.07985 12.5797 8.07985 12.5797C8.07985 12.5797 7.84094 12.6123 7.51438 12.3665C6.70313 11.7529 4.78157 9.56496 4.34844 9.10434C3.70563 8.42028 3.1075 8.84825 2.98032 8.92559C2.98203 8.92559 3.34985 8.78293 3.90328 9.37418ZM10.5858 10.5292C10.5858 10.5292 10.3658 10.689 9.96188 10.2164C9.66797 9.8709 6.29407 5.7545 6.29407 5.7545C5.44844 4.72153 4.78329 5.02918 4.64578 5.10825C4.64578 5.10825 5.07032 5.0859 5.56703 5.65825C5.79391 5.9195 9.39469 10.5103 9.53907 10.6667C10.0667 11.2425 10.5548 10.7475 10.5858 10.5292Z" fill="#EDA600"/>
<path d="M17.4969 9.93953C17.4969 9.93953 13.0264 2.44406 12.7411 1.93359C12.1069 0.800938 11.3695 1.14813 11.2441 1.20484C11.2441 1.20484 11.6548 1.08797 12.1378 1.90953C12.3956 2.34609 15.6802 8.25172 16.7286 10.1389C16.8111 10.4913 16.8042 10.9502 16.5395 11.2458C15.5908 12.3097 14.3808 13.3959 14.7366 16.0892C14.8259 16.7716 15.0786 17.4178 15.2659 17.7289C15.5031 18.1191 15.7764 17.9713 15.6561 17.6791C15.5753 17.4814 15.4464 17.0156 15.4206 16.8163C15.3003 15.8881 14.8947 14.2656 16.7131 12.32C17.0208 11.9952 17.8028 11.0138 17.4969 9.93953Z" fill="#EDA600"/>
<path d="M17.7879 5.32115C17.549 4.47381 17.1778 3.69694 16.6965 3.02319C16.2634 2.41647 15.7392 1.89397 15.141 1.47459C15.0654 1.42131 14.9692 1.25631 15.0517 1.09647C15.1342 0.936623 15.3129 0.957248 15.38 0.984748C16.1276 1.2924 16.7395 1.8235 17.2448 2.55225C17.8446 3.4185 18.142 4.2349 18.295 5.14756C18.3121 5.24725 18.3087 5.45694 18.0956 5.51194C17.8842 5.56694 17.812 5.40365 17.7879 5.32115ZM16.6192 6.23037C16.3803 5.38303 16.009 4.60615 15.5278 3.9324C15.0946 3.32569 14.5704 2.80319 13.9723 2.38381C13.8967 2.33053 13.8004 2.16553 13.8829 2.00569C13.9654 1.84412 14.1442 1.86647 14.2112 1.89397C14.9589 2.20162 15.5707 2.73272 16.076 3.46147C16.6759 4.32772 16.9732 5.14412 17.1262 6.05678C17.1434 6.15647 17.1399 6.36615 16.9268 6.42115C16.7171 6.47615 16.6432 6.31459 16.6192 6.23037ZM1.47183 13.3133C1.76745 14.1435 2.18854 14.8929 2.71276 15.534C3.18542 16.1097 3.74229 16.5979 4.3662 16.9777C4.44526 17.0258 4.55183 17.184 4.47964 17.349C4.40745 17.5157 4.2287 17.5054 4.15823 17.483C3.39167 17.2252 2.74542 16.7354 2.1937 16.041C1.53886 15.216 1.18651 14.4219 0.973389 13.5213C0.949326 13.4216 0.939014 13.2137 1.1487 13.1449C1.35839 13.0762 1.44261 13.2326 1.47183 13.3133ZM2.57698 12.3285C2.87261 13.1587 3.2937 13.908 3.81792 14.5491C4.29058 15.1249 4.84745 15.613 5.47136 15.9929C5.55042 16.041 5.65698 16.1991 5.58479 16.3641C5.51261 16.5308 5.33386 16.5205 5.26339 16.4982C4.49683 16.2404 3.85058 15.7505 3.29886 15.0562C2.64401 14.2312 2.29167 13.4371 2.07854 12.5365C2.05448 12.4368 2.04417 12.2288 2.25386 12.1601C2.46354 12.0896 2.54776 12.2477 2.57698 12.3285Z" fill="#B0BEC5"/>
</g>
<defs>
<clipPath id="clip0_1_2683">
<rect width="22" height="22" fill="white"/>
</clipPath>
</defs>
</svg>
